<?xml version="1.0" encoding="utf-8"?>
<!-- Generator: Adobe Illustrator 17.0.0, SVG Export Plug-In . SVG Version: 6.00 Build 0)  -->
<!DOCTYPE svg PUBLIC "-//W3C//DTD SVG 1.1//EN" "http://www.w3.org/Graphics/SVG/1.1/DTD/svg11.dtd">
<svg version="1.1" id="Layer_1" xmlns="http://www.w3.org/2000/svg" xmlns:xlink="http://www.w3.org/1999/xlink" x="0px" y="0px"
	 width="500px" height="500px" viewBox="0 0 100 100" enable-background="new 0 0 100 100" xml:space="preserve">
<g>
	<circle fill="none" stroke="#E03838" stroke-miterlimit="10" stroke-dasharray="8.0482,8.0482" cx="50" cy="50" r="41">

		<animateTransform attributeName="transform"
			 attributeType="XML"
			 type="rotate"
			 from="0 50 50"
			 to="360 50 50"
			 dur="10s"
			 repeatCount="indefinite" /> 

	</circle>
</g>
<circle fill="#FFFF00" cx="50" cy="50" r="36"/>
<rect x="65.549" y="22.047" fill="none" width="8.134" height="9.888"/>
<text transform="matrix(1 0 0 1 65.5489 30.567)" font-family="'MyriadPro-Regular'" font-size="12">1</text>
<rect x="73.835" y="33.197" fill="none" width="8.134" height="9.888"/>
<text transform="matrix(1 0 0 1 73.8352 41.7169)" font-family="'MyriadPro-Regular'" font-size="12">2</text>
<rect x="77.953" y="46.58" fill="none" width="8.134" height="9.888"/>
<text transform="matrix(1 0 0 1 77.9532 55.0997)" font-family="'MyriadPro-Regular'" font-size="12">3</text>
<rect x="73.668" y="60.267" fill="none" width="8.134" height="9.888"/>
<text transform="matrix(1 0 0 1 73.6685 68.7871)" font-family="'MyriadPro-Regular'" font-size="12">4</text>
<rect x="64.215" y="70.337" fill="none" width="8.134" height="9.888"/>
<text transform="matrix(1 0 0 1 64.2148 78.8565)" font-family="'MyriadPro-Regular'" font-size="12">5</text>
<rect x="49.136" y="75.65" fill="none" width="8.134" height="9.888"/>
<text transform="matrix(1 0 0 1 49.1358 84.1699)" font-family="'MyriadPro-Regular'" font-size="12">6</text>
<rect x="33.231" y="71.482" fill="none" width="8.134" height="9.888"/>
<text transform="matrix(1 0 0 1 33.2315 80.0016)" font-family="'MyriadPro-Regular'" font-size="12">7</text>
<rect x="23.857" y="60.441" fill="none" width="8.134" height="9.888"/>
<text transform="matrix(1 0 0 1 23.8575 68.961)" font-family="'MyriadPro-Regular'" font-size="12">8</text>
<rect x="18.725" y="46.58" fill="none" width="8.134" height="9.888"/>
<text transform="matrix(1 0 0 1 18.7251 55.0997)" font-family="'MyriadPro-Regular'" font-size="12">9</text>
<rect x="21.001" y="33.516" fill="none" width="13.078" height="8.931"/>
<text transform="matrix(1 0 0 1 21.0011 42.0359)" font-family="'MyriadPro-Regular'" font-size="12">10</text>
<rect x="29.715" y="23.004" fill="none" width="12.919" height="9.25"/>
<text transform="matrix(1 0 0 1 29.7148 31.5244)" font-family="'MyriadPro-Regular'" font-size="12">11</text>
<rect x="45.881" y="17.096" fill="none" width="13.716" height="9.41"/>
<text transform="matrix(1 0 0 1 45.8814 25.6161)" font-family="'MyriadPro-Regular'" font-size="12">12</text>
<line stroke="#000000" stroke-miterlimit="10" x1="50" y1="50" x2="34.188" y2="41.498">
	<animateTransform attributeName="transform"
			 attributeType="XML"
			 type="rotate"
			 from="0 50 50"
			 to="360 50 50"
			 dur="5s"
			 repeatCount="indefinite" />
</line>
<line fill="none" stroke="#000000" stroke-width="2" stroke-miterlimit="10" x1="50" y1="50" x2="52" y2="61">
	<animateTransform attributeName="transform"
			 attributeType="XML"
			 type="rotate"
			 from="0 50 50"
			 to="360 50 50"
			 dur="15s"
			 repeatCount="indefinite" />
</line>
<ellipse fill="#FF0000" cx="50" cy="50" rx="3.605" ry="3.566"/>
</svg>
